<svg width="35" height="34" viewBox="0 0 35 34" fill="none" xmlns="http://www.w3.org/2000/svg">
<g clip-path="url(#clip0_2619_3071)">
<path d="M24.3083 0H11.5583C5.69123 0 0.93335 4.75788 0.93335 10.625V23.375C0.93335 29.2422 5.69123 34 11.5583 34H24.3083C30.1755 34 34.9333 29.2422 34.9333 23.375V10.625C34.9333 4.75788 30.1755 0 24.3083 0ZM31.7458 23.375C31.7458 27.4762 28.4095 30.8125 24.3083 30.8125H11.5583C7.4571 30.8125 4.12085 27.4762 4.12085 23.375V10.625C4.12085 6.52375 7.4571 3.1875 11.5583 3.1875H24.3083C28.4095 3.1875 31.7458 6.52375 31.7458 10.625V23.375Z" fill="white"/>
<path d="M17.9333 8.5C13.2392 8.5 9.43335 12.3058 9.43335 17C9.43335 21.6942 13.2392 25.5 17.9333 25.5C22.6275 25.5 26.4333 21.6942 26.4333 17C26.4333 12.3058 22.6275 8.5 17.9333 8.5ZM17.9333 22.3125C15.005 22.3125 12.6208 19.9282 12.6208 17C12.6208 14.0697 15.005 11.6875 17.9333 11.6875C20.8615 11.6875 23.2458 14.0697 23.2458 17C23.2458 19.9282 20.8615 22.3125 17.9333 22.3125Z" fill="white"/>
<path d="M27.0699 8.99522C27.6954 8.99522 28.2026 8.48813 28.2026 7.8626C28.2026 7.23707 27.6954 6.72998 27.0699 6.72998C26.4444 6.72998 25.9373 7.23707 25.9373 7.8626C25.9373 8.48813 26.4444 8.99522 27.0699 8.99522Z" fill="white"/>
</g>
<defs>
<clipPath id="clip0_2619_3071">
<rect width="34" height="34" fill="white" transform="translate(0.93335)"/>
</clipPath>
</defs>
</svg>
