<svg width="28" height="22" viewBox="0 0 28 22" fill="none" xmlns="http://www.w3.org/2000/svg">
<path d="M25.3243 21.8485C25.9493 21.8485 26.491 21.6421 26.9514 21.2346L19.0731 13.356C18.8841 13.4914 18.7009 13.623 18.5278 13.7481C17.9383 14.1825 17.4598 14.5215 17.0923 14.7644C16.7249 15.0078 16.2361 15.2559 15.626 15.5093C15.0154 15.7629 14.4466 15.8893 13.9189 15.8893H13.9034H13.888C13.3603 15.8893 12.7914 15.763 12.1809 15.5093C11.5704 15.2559 11.0816 15.0078 10.7145 14.7644C10.3472 14.5215 9.86891 14.1826 9.27903 13.7481C9.11465 13.6276 8.93234 13.4954 8.73525 13.3539L0.855469 21.2346C1.31585 21.6421 1.85781 21.8485 2.48283 21.8485H25.3243Z" fill="white"/>
<path d="M1.56743 8.39512C0.977911 8.00208 0.45513 7.55195 0 7.04492V19.0315L6.94387 12.0876C5.5547 11.1178 3.76483 9.88838 1.56743 8.39512Z" fill="white"/>
<path d="M26.2546 8.39512C24.141 9.82568 22.3446 11.0572 20.8652 12.0904L27.8064 19.0318V7.04492C27.3613 7.54175 26.8441 7.99158 26.2546 8.39512Z" fill="white"/>
<path d="M25.324 0H2.48264C1.68577 0 1.07313 0.269089 0.643947 0.806713C0.214413 1.34459 0 2.01726 0 2.82398C0 3.4756 0.284538 4.18164 0.853362 4.94231C1.42219 5.70268 2.02746 6.29992 2.66888 6.73436C3.02052 6.9828 4.08092 7.71999 5.8501 8.94568C6.80514 9.6075 7.63568 10.1844 8.3494 10.6821C8.95775 11.106 9.4824 11.4731 9.91557 11.7777C9.9653 11.8126 10.0435 11.8686 10.1473 11.9428C10.2591 12.0231 10.4006 12.125 10.5752 12.2511C10.9114 12.4942 11.1907 12.6908 11.4131 12.8409C11.6353 12.9911 11.9044 13.1589 12.2201 13.3452C12.5356 13.5312 12.8332 13.6711 13.1125 13.7642C13.3918 13.8571 13.6504 13.9038 13.8883 13.9038H13.9037H13.9192C14.157 13.9038 14.4157 13.8571 14.6951 13.7642C14.9743 13.6711 15.2716 13.5315 15.5873 13.3452C15.9028 13.1589 16.1716 12.9908 16.3944 12.8409C16.6169 12.6908 16.8961 12.4943 17.2324 12.2511C17.4066 12.125 17.5481 12.023 17.6599 11.943C17.7638 11.8685 17.8419 11.8129 17.892 11.7777C18.2294 11.5429 18.7553 11.1774 19.4623 10.6864C20.7488 9.79258 22.6434 8.47697 25.1542 6.73436C25.9093 6.20693 26.5401 5.57045 27.0472 4.82584C27.5533 4.08122 27.807 3.30016 27.807 2.48289C27.807 1.80007 27.561 1.2158 27.07 0.729167C26.5785 0.24314 25.9965 0 25.324 0Z" fill="white"/>
</svg>
