<svg viewBox="0 0 18 19" fill="none" xmlns="http://www.w3.org/2000/svg">
<path fill-rule="evenodd" clip-rule="evenodd" d="M15.1745 12.6411L15.1745 12.641C15.0723 12.5677 14.9702 12.4945 14.8684 12.4209C13.6938 11.5717 12.6195 11.5057 11.743 12.872C11.2508 13.639 10.5618 13.6726 9.84137 13.3361C7.85526 12.4091 6.32159 10.9807 5.42323 8.90264C5.02582 7.98325 5.03105 7.15897 5.96086 6.50872C6.45314 6.16483 6.94909 5.75792 6.90944 5.0065C6.85766 4.02673 4.54671 0.752444 3.63412 0.406858C3.2565 0.263832 2.88043 0.27314 2.49625 0.406054C0.356368 1.14684 -0.529969 2.95845 0.318868 5.10351C2.85119 11.5031 7.30767 15.9583 13.4423 18.6776C13.6973 18.7905 13.9729 18.854 14.1798 18.9016L14.1798 18.9016C14.2566 18.9193 14.324 18.9348 14.3773 18.9499C15.774 18.9643 17.4101 17.5792 17.8826 16.2045C18.2824 15.042 17.5881 14.4958 16.8977 13.9527C16.8027 13.8778 16.7076 13.8031 16.6156 13.7268C16.1525 13.343 15.6631 12.9918 15.1745 12.6411ZM9.7372 1.06303C14.222 1.77296 16.2903 3.9682 16.8614 8.61807C16.8729 8.71161 16.8746 8.81544 16.8763 8.92076C16.8823 9.299 16.8886 9.69645 17.3542 9.70576C17.8742 9.71599 17.8549 9.27288 17.8376 8.87606C17.8342 8.7981 17.8308 8.72193 17.8317 8.65133C17.8843 4.27201 14.1748 0.2122 9.86686 0.0625116C9.79046 0.0738299 9.69485 0.0670772 9.59275 0.0598656C9.2605 0.0363992 8.85945 0.00807342 8.82736 0.581694C8.80494 0.987084 9.16456 1.01401 9.49951 1.03909C9.58229 1.04529 9.66357 1.05137 9.7372 1.06303ZM10.6144 2.33798C10.5494 2.32992 10.4813 2.31833 10.4121 2.30656C10.0221 2.24019 9.59836 2.16808 9.51274 2.69141C9.4275 3.2152 9.82767 3.27167 10.1995 3.32415C10.2868 3.33647 10.3725 3.34856 10.45 3.36642C13.2199 4.00368 14.1844 5.04148 14.6405 7.86987C14.6537 7.95177 14.6591 8.04273 14.6645 8.13508C14.6866 8.50766 14.71 8.90289 15.2555 8.81765C15.6368 8.75787 15.6258 8.429 15.6159 8.1332C15.6127 8.03765 15.6096 7.94554 15.6199 7.86708C15.6423 5.15162 13.3819 2.68007 10.6144 2.33798ZM10.1924 4.91461C10.2982 4.59784 10.5808 4.56576 10.8688 4.55844C12.0966 4.52706 13.5354 6.04171 13.5151 7.35214C13.5277 7.71034 13.4905 8.08754 13.0788 8.1381C12.7818 8.1742 12.5866 7.91768 12.5559 7.6011C12.4424 6.43469 11.8444 5.74498 10.7082 5.55721C10.3678 5.50093 10.0334 5.38805 10.1924 4.91461Z" fill="white"/>
</svg>