<svg viewBox="0 0 18 18" fill="none" xmlns="http://www.w3.org/2000/svg">
<path fill-rule="evenodd" clip-rule="evenodd" d="M6.4848 4.5716C6.31028 4.15366 6.17795 4.13777 5.91358 4.12708C5.82358 4.12188 5.72331 4.11668 5.61208 4.11668C5.26811 4.11668 4.90853 4.21722 4.69155 4.43941C4.42717 4.70927 3.77116 5.33885 3.77116 6.62979C3.77116 7.92086 4.71264 9.16947 4.83963 9.34427C4.97195 9.51865 6.6752 12.2066 9.31994 13.302C11.3881 14.1591 12.0018 14.0797 12.4725 13.9793C13.1601 13.8312 14.0223 13.323 14.2393 12.7094C14.4561 12.0956 14.4561 11.5718 14.3926 11.4607C14.3291 11.3496 14.1545 11.2863 13.8901 11.1538C13.6257 11.0215 12.3403 10.3866 12.097 10.3019C11.8589 10.2121 11.6315 10.2438 11.4518 10.4978C11.1978 10.8523 10.9494 11.2122 10.7483 11.429C10.5896 11.5983 10.3303 11.6196 10.1135 11.5296C9.82253 11.4081 9.00803 11.1221 8.00299 10.228C7.22533 9.53496 6.69644 8.67265 6.54316 8.41333C6.38974 8.14882 6.52727 7.99525 6.64891 7.85252C6.78124 7.68841 6.90808 7.57211 7.04027 7.41855C7.1726 7.26513 7.24656 7.18582 7.33122 7.00582C7.42122 6.8313 7.35766 6.6513 7.29424 6.51897C7.23067 6.38636 6.70178 5.09529 6.4848 4.5716ZM8.99733 0C4.0358 0 0 4.03692 0 8.99986C0 10.968 0.634781 12.7935 1.7138 14.275L0.592313 17.6189L4.05169 16.5133C5.47453 17.4551 7.17244 18 9.00267 18C13.9642 18 18 13.9628 18 9.00014C18 4.0372 13.9642 0.00028125 9.00267 0.00028125H8.99747V0H8.99733Z" fill="white"/>
</svg>