<svg width="32" height="32" viewBox="0 0 32 32" fill="none" xmlns="http://www.w3.org/2000/svg">
<rect width="32" height="32" rx="8" fill="#0F172A"/>
<path d="M6.58523 23V9.90909H9.53409V12.1335H9.6875C9.96023 11.3835 10.4119 10.7983 11.0426 10.3778C11.6733 9.9517 12.4261 9.73864 13.3011 9.73864C14.1875 9.73864 14.9347 9.95455 15.5426 10.3864C16.1563 10.8125 16.5881 11.3949 16.8381 12.1335H16.9744C17.2642 11.4062 17.7528 10.8267 18.4403 10.3949C19.1335 9.95739 19.9545 9.73864 20.9034 9.73864C22.108 9.73864 23.0909 10.1193 23.8523 10.8807C24.6136 11.642 24.9943 12.7528 24.9943 14.2131V23H21.9006V14.6903C21.9006 13.8778 21.6847 13.2841 21.2528 12.9091C20.821 12.5284 20.2926 12.3381 19.6676 12.3381C18.9233 12.3381 18.3409 12.571 17.9205 13.0369C17.5057 13.4972 17.2983 14.0966 17.2983 14.8352V23H14.2727V14.5625C14.2727 13.8864 14.0682 13.3466 13.6591 12.9432C13.2557 12.5398 12.7273 12.3381 12.0739 12.3381C11.6307 12.3381 11.2273 12.4517 10.8636 12.679C10.5 12.9006 10.2102 13.2159 9.99432 13.625C9.77841 14.0284 9.67045 14.5 9.67045 15.0398V23H6.58523Z" fill="#5EEAD4"/>
</svg>
