<svg width="46" height="46" viewBox="0 0 46 46" fill="none" xmlns="http://www.w3.org/2000/svg">
<path opacity="0.4" d="M45.6539 19.8161C44.8271 13.7903 41.6404 8.33965 36.7949 4.66334C31.9494 0.987042 25.8419 -0.613815 19.8161 0.212946C13.7903 1.03971 8.33965 4.22636 4.66335 9.07188C0.987042 13.9174 -0.613815 20.0249 0.212946 26.0507C0.894088 31.0381 3.18602 35.6665 6.73992 39.2313C10.2938 42.7962 14.9151 45.1023 19.9004 45.7988C20.9205 45.9324 21.9482 45.9996 22.977 46C27.1337 46.0068 31.2125 44.8725 34.7688 42.7207C35.0184 42.5704 35.236 42.3723 35.409 42.1379C35.5821 41.9035 35.7073 41.6373 35.7775 41.3545C35.8477 41.0717 35.8615 40.7778 35.8181 40.4896C35.7747 40.2015 35.675 39.9247 35.5246 39.6751C35.3743 39.4255 35.1763 39.208 34.9418 39.0349C34.7074 38.8618 34.4412 38.7366 34.1584 38.6665C33.5873 38.5247 32.9832 38.6157 32.4791 38.9193C29.9477 40.4387 27.0894 41.3298 24.143 41.5181C21.1967 41.7064 18.2482 41.1864 15.544 40.0017C12.8398 38.8169 10.4587 37.0018 8.59974 34.7082C6.74081 32.4146 5.45815 29.7092 4.85905 26.8183C4.25996 23.9274 4.36185 20.9351 5.1562 18.0916C5.95055 15.2482 7.41427 12.6363 9.42492 10.4745C11.4356 8.31264 13.9347 6.66371 16.7132 5.66564C19.4917 4.66757 22.4688 4.34937 25.3954 4.73766C28.1139 5.0991 30.7178 6.06071 33.0187 7.55282C35.3196 9.04494 37.2597 11.0302 38.6985 13.3647C40.1374 15.6993 41.0389 18.3247 41.3378 21.0507C41.6366 23.7767 41.3254 26.535 40.4265 29.1259C40.1933 29.7489 39.7719 30.2838 39.2209 30.6565C38.6698 31.0291 38.0164 31.221 37.3514 31.2055C36.475 31.2044 35.6348 30.8557 35.0151 30.236C34.3953 29.6162 34.0467 28.7761 34.0455 27.8996V14.1953C34.0455 13.6069 33.8117 13.0425 33.3956 12.6265C32.9796 12.2104 32.4152 11.9766 31.8268 11.9766C31.2383 11.9766 30.674 12.2104 30.2579 12.6265C29.8418 13.0425 29.6081 13.6069 29.6081 14.1953V14.216C27.9261 12.9465 25.9173 12.1824 23.8168 12.013C21.7163 11.8436 19.611 12.276 17.7473 13.2595C15.8836 14.2431 14.3386 15.7371 13.2931 17.5667C12.2475 19.3964 11.7448 21.486 11.8436 23.591C11.9424 25.696 12.6388 27.7293 13.8511 29.4529C15.0634 31.1766 16.7416 32.5192 18.6893 33.3238C20.637 34.1284 22.7735 34.3617 24.8489 33.9962C26.9243 33.6308 28.8526 32.6818 30.4083 31.2603C31.0368 32.5694 32.0215 33.675 33.2496 34.4501C34.4776 35.2253 35.8992 35.6387 37.3514 35.643C38.9389 35.6583 40.4918 35.1788 41.7943 34.2712C43.0969 33.3636 44.0845 32.0729 44.6199 30.5784C45.8157 27.1242 46.1701 23.4347 45.6539 19.8161V19.8161ZM22.9519 29.7264C21.6354 29.7264 20.3485 29.336 19.2539 28.6046C18.1593 27.8732 17.3062 26.8337 16.8024 25.6174C16.2986 24.4012 16.1668 23.0628 16.4236 21.7717C16.6804 20.4805 17.3144 19.2945 18.2453 18.3636C19.1761 17.4327 20.3622 16.7988 21.6533 16.5419C22.9445 16.2851 24.2828 16.4169 25.4991 16.9207C26.7153 17.4245 27.7549 18.2777 28.4863 19.3723C29.2177 20.4669 29.6081 21.7538 29.6081 23.0702C29.6061 24.8349 28.9042 26.5268 27.6563 27.7747C26.4085 29.0225 24.7166 29.7244 22.9519 29.7264V29.7264Z" fill="white"/>
</svg>
