<svg width="33" height="45" viewBox="0 0 33 45" fill="none" xmlns="http://www.w3.org/2000/svg">
<path opacity="0.4" d="M16.4993 0C7.40203 0 0 7.43215 0 16.5674C0 18.9502 0.485732 21.2252 1.44298 23.3299C5.56827 32.3937 13.4776 41.9632 15.804 44.6799C15.9783 44.883 16.2324 45 16.4998 45C16.7672 45 17.0213 44.883 17.1956 44.6799C19.521 41.9637 27.4304 32.3946 31.557 23.3299C32.5147 21.2252 33 18.9502 33 16.5674C32.9991 7.43215 25.5971 0 16.4993 0ZM16.4993 25.1725C11.7736 25.1725 7.92859 21.3118 7.92859 16.5669C7.92859 11.8215 11.7736 7.96084 16.4993 7.96084C21.225 7.96084 25.07 11.8215 25.07 16.5669C25.0705 21.3118 21.2255 25.1725 16.4993 25.1725Z" fill="white"/>
</svg>
