<svg width="39" height="39" viewBox="0 0 39 39" fill="none" xmlns="http://www.w3.org/2000/svg">
<path opacity="0.4" d="M36.6539 26.9514C34.0666 26.9514 31.4792 26.5202 28.8919 25.6577C28.2451 25.4421 27.3825 25.6577 26.7358 26.0889L21.9923 30.8324C15.9553 27.8138 10.9962 22.6392 7.762 16.6021L12.5054 11.8586C13.1523 11.2118 13.3679 10.3493 12.9367 9.7025C12.2898 7.33078 11.8586 4.74344 11.8586 2.15611C11.8586 0.862444 10.9962 0 9.7025 0H2.15611C0.862444 0 0 0.862444 0 2.15611C0 22.4236 16.3864 38.81 36.6539 38.81C37.9476 38.81 38.81 37.9476 38.81 36.6539V29.1075C38.81 27.8138 37.9476 26.9514 36.6539 26.9514ZM34.4978 19.405H38.81C38.81 8.62445 30.1856 0 19.405 0V4.31222C27.8138 4.31222 34.4978 10.9962 34.4978 19.405ZM25.8733 19.405H30.1856C30.1856 13.3679 25.4421 8.62445 19.405 8.62445V12.9367C23.0704 12.9367 25.8733 15.7396 25.8733 19.405Z" fill="white"/>
</svg>
